0
SECTION
2
HEADER
9
$INSUNITS
70
4
9
$ACADVER
1
AC1014
9
$HANDSEED
5
FFFF
0
ENDSEC
0
SECTION
2
TABLES
0
TABLE
2
VPORT
5
8
100
AcDbSymbolTable
0
ENDTAB
0
TABLE
2
LTYPE
5
5
100
AcDbSymbolTable
0
LTYPE
5
14
100
AcDbSymbolTableRecord
100
AcDbLinetypeTableRecord
2
BYBLOCK
70
0
0
LTYPE
5
15
100
AcDbSymbolTableRecord
100
AcDbLinetypeTableRecord
2
BYLAYER
70
0
0
ENDTAB
0
TABLE
2
LAYER
5
2
100
AcDbSymbolTable
70
2
0
LAYER
5
50
100
AcDbSymbolTableRecord
100
AcDbLayerTableRecord
2
0
70
0
6
CONTINUOUS
0
ENDTAB
0
TABLE
2
STYLE
5
3
100
AcDbSymbolTable
70
1
0
STYLE
5
11
100
AcDbSymbolTableRecord
100
AcDbTextStyleTableRecord
2
STANDARD
70
0
0
ENDTAB
0
TABLE
2
VIEW
5
6
100
AcDbSymbolTable
70
0
0
ENDTAB
0
TABLE
2
UCS
5
7
100
AcDbSymbolTable
70
0
0
ENDTAB
0
TABLE
2
APPID
5
9
100
AcDbSymbolTable
70
2
0
APPID
5
12
100
AcDbSymbolTableRecord
100
AcDbRegAppTableRecord
2
ACAD
70
0
0
ENDTAB
0
TABLE
2
DIMSTYLE
5
A
100
AcDbSymbolTable
70
1
0
ENDTAB
0
TABLE
2
BLOCK_RECORD
5
1
100
AcDbSymbolTable
70
1
0
BLOCK_RECORD
5
1F
100
AcDbSymbolTableRecord
100
AcDbBlockTableRecord
2
*MODEL_SPACE
0
BLOCK_RECORD
5
1B
100
AcDbSymbolTableRecord
100
AcDbBlockTableRecord
2
*PAPER_SPACE
0
ENDTAB
0
ENDSEC
0
SECTION
2
BLOCKS
0
BLOCK
5
20
100
AcDbEntity
100
AcDbBlockBegin
2
*MODEL_SPACE
0
ENDBLK
5
21
100
AcDbEntity
100
AcDbBlockEnd
0
BLOCK
5
1C
100
AcDbEntity
100
AcDbBlockBegin
2
*PAPER_SPACE
0
ENDBLK
5
1D
100
AcDbEntity
100
AcDbBlockEnd
0
ENDSEC
0
SECTION
2
ENTITIES
0
LWPOLYLINE
5
100
100
AcDbEntity
8
0
100
AcDbPolyline
90
8
70
1
43
0.0
10
97.081500000000005
20
35.832999999999998
10
84.082200000000014
20
35.833000000000013
42
0.41421356237305601
10
83.582200000000014
20
35.332999999999998
10
83.582200000000014
20
22.333600000000004
42
0.414213562373069
10
84.082200000000014
20
21.833600000000001
10
97.081500000000005
20
21.833600000000004
42
0.41421356237308726
10
97.581500000000005
20
22.333599999999997
10
97.581500000000005
20
35.332999999999998
42
0.41421356237308726
0
LWPOLYLINE
5
101
100
AcDbEntity
8
0
100
AcDbPolyline
90
8
70
1
43
0.0
10
269.32000000000005
20
35.332999999999998
10
269.32000000000005
20
22.333600000000004
42
0.41421356237312884
10
269.82000000000005
20
21.833600000000001
10
282.81900000000002
20
21.833600000000011
42
0.41421356237312362
10
283.31900000000007
20
22.333599999999997
10
283.31900000000007
20
35.332999999999998
42
0.41421356237312362
10
282.81900000000002
20
35.832999999999998
10
269.82000000000005
20
35.832999999999998
42
0.41421356237312362
0
LWPOLYLINE
5
102
100
AcDbEntity
8
0
100
AcDbPolyline
90
8
70
1
43
0.0
10
256.625
20
35.832999999999998
10
243.626
20
35.833000000000006
42
0.41421356237309243
10
243.126
20
35.332999999999998
10
243.126
20
22.333599999999997
42
0.41421356237309243
10
243.626
20
21.833600000000001
10
256.625
20
21.833599999999997
42
0.41421356237309243
10
257.125
20
22.333599999999997
10
257.125
20
35.332999999999998
42
0.41421356237309243
0
LWPOLYLINE
5
103
100
AcDbEntity
8
0
100
AcDbPolyline
90
14
70
1
43
0.0
10
257.41200000000003
20
54.883099999999999
10
271.41300000000001
20
54.883099999999999
10
271.41300000000001
20
55.359568722667262
42
-0.41421356237313145
10
271.91300000000001
20
55.859568722667262
10
280.01340000000005
20
55.859568722667262
42
-0.41421356237313145
10
280.51340000000005
20
55.359568722667262
10
280.51340000000005
20
41.383799999999994
42
-0.41421356237313145
10
280.01340000000005
20
40.883800000000001
10
248.81283000000002
20
40.883800000000015
42
-0.41421356237312101
10
248.31283000000002
20
41.383799999999994
10
248.31283000000002
20
55.335704223949442
42
-0.41421356237312101
10
248.81283000000002
20
55.835704223949421
10
256.91200000000003
20
55.835704223949435
42
-0.41421356237313145
10
257.41200000000003
20
55.335704223949442
0
LWPOLYLINE
5
104
100
AcDbEntity
8
0
100
AcDbPolyline
90
8
70
1
43
0.0
10
301.86900000000003
20
54.883099999999999
10
288.87000000000006
20
54.883099999999999
42
0.41421356237313145
10
288.37
20
54.383100000000006
10
288.37
20
41.383799999999994
42
0.41421356237313145
10
288.87000000000006
20
40.883800000000001
10
301.86900000000003
20
40.883800000000001
42
0.41421356237313145
10
302.36900000000003
20
41.383799999999994
10
302.36900000000003
20
54.383100000000006
42
0.41421356237313145
0
LWPOLYLINE
5
105
100
AcDbEntity
8
0
100
AcDbPolyline
90
8
70
1
43
0.0
10
97.868300000000019
20
92.483099999999979
10
97.868300000000019
20
79.483800000000002
42
0.41421356237310542
10
98.368300000000033
20
78.983800000000016
10
111.369
20
78.983800000000002
42
0.41421356237310542
10
111.86900000000001
20
79.483800000000002
10
111.86900000000001
20
92.483099999999979
42
0.41421356237307422
10
111.369
20
92.983099999999993
10
98.368300000000033
20
92.983099999999993
42
0.41421356237307422
0
LWPOLYLINE
5
106
100
AcDbEntity
8
0
100
AcDbPolyline
90
8
70
1
43
0.0
10
41.219700000000003
20
78.983800000000002
10
54.219000000000001
20
78.983800000000002
42
0.41421356237309509
10
54.718999999999994
20
79.483800000000002
10
54.718999999999994
20
92.483100000000007
42
0.41421356237305862
10
54.219000000000001
20
92.983099999999993
10
41.219700000000003
20
92.983099999999993
42
0.414213562373069
10
40.719700000000003
20
92.483099999999979
10
40.719700000000003
20
79.483800000000002
42
0.41421356237309509
0
LWPOLYLINE
5
107
100
AcDbEntity
8
0
100
AcDbPolyline
90
8
70
1
43
0.0
10
124.56200000000003
20
16.783099999999997
10
137.56299999999999
20
16.783099999999997
42
-0.41421356237308854
10
138.06299999999999
20
16.283100000000005
10
138.06299999999999
20
3.2836400000000001
42
-0.41421356237308982
10
137.56299999999999
20
2.7836400000000019
10
124.56200000000003
20
2.7836400000000023
42
-0.41421356237309009
10
124.06200000000001
20
3.283640000000001
10
124.06200000000001
20
16.283100000000001
42
-0.41421356237308854
0
LWPOLYLINE
5
108
100
AcDbEntity
8
0
100
AcDbPolyline
90
8
70
1
43
0.0
10
106.60700000000003
20
54.883099999999999
10
93.607200000000006
20
54.883099999999999
42
0.41421356237305862
10
93.10720000000002
20
54.383100000000006
10
93.107200000000034
20
41.383799999999994
42
0.41421356237307422
10
93.60720000000002
20
40.883800000000001
10
106.60700000000003
20
40.883800000000008
42
0.41421356237310542
10
107.10700000000003
20
41.383799999999994
10
107.10700000000003
20
54.383100000000006
42
0.41421356237308982
0
LWPOLYLINE
5
109
100
AcDbEntity
8
0
100
AcDbPolyline
90
8
70
1
43
0.0
10
211.88200000000001
20
3.283640000000001
10
211.88200000000001
20
16.283100000000001
42
0.41421356237312756
10
211.38200000000001
20
16.783100000000001
10
198.38200000000003
20
16.783099999999994
42
0.41421356237312756
10
197.88200000000003
20
16.283100000000001
10
197.88200000000003
20
3.2836400000000006
42
0.41421356237312851
10
198.38200000000003
20
2.7836400000000001
10
211.38200000000001
20
2.7836400000000068
42
0.41421356237312917
0
LWPOLYLINE
5
110
100
AcDbEntity
8
0
100
AcDbPolyline
90
8
70
1
43
0.0
10
69.006500000000003
20
41.383799999999994
10
69.006500000000003
20
54.383100000000006
42
0.41421356237309509
10
68.506500000000003
20
54.883099999999999
10
55.507199999999997
20
54.883099999999999
42
0.41421356237309509
10
55.007200000000005
20
54.383100000000006
10
55.007200000000005
20
41.383799999999994
42
0.41421356237310542
10
55.507199999999997
20
40.883800000000001
10
68.506500000000003
20
40.883800000000001
42
0.41421356237309509
0
LWPOLYLINE
5
111
100
AcDbEntity
8
0
100
AcDbPolyline
90
8
70
1
43
0.0
10
230.43200000000002
20
35.832999999999998
10
217.43200000000004
20
35.832999999999984
42
0.41421356237312362
10
216.93200000000004
20
35.332999999999998
10
216.93200000000004
20
22.333600000000004
42
0.41421356237312884
10
217.43200000000004
20
21.833600000000001
10
230.43200000000002
20
21.833600000000011
42
0.41421356237312362
10
230.93200000000002
20
22.333599999999997
10
230.93200000000002
20
35.332999999999998
42
0.41421356237312884
0
LWPOLYLINE
5
112
100
AcDbEntity
8
0
100
AcDbPolyline
90
8
70
1
43
0.0
10
288.87000000000006
20
2.7836400000000001
10
301.86900000000003
20
2.7836400000000063
42
0.41421356237312817
10
302.36900000000003
20
3.2836399999999988
10
302.36900000000003
20
16.283100000000001
42
0.41421356237312756
10
301.86900000000003
20
16.783100000000001
10
288.87000000000006
20
16.783099999999994
42
0.41421356237312756
10
288.37
20
16.283100000000001
10
288.37
20
3.2836400000000006
42
0.41421356237312851
0
LWPOLYLINE
5
113
100
AcDbEntity
8
0
100
AcDbPolyline
90
8
70
1
43
0.0
10
211.88200000000001
20
22.333599999999997
10
211.88200000000001
20
35.332999999999998
42
0.41421356237312362
10
211.38200000000001
20
35.832999999999998
10
198.38200000000003
20
35.832999999999984
42
0.41421356237312362
10
197.88200000000003
20
35.332999999999998
10
197.88200000000003
20
22.333600000000004
42
0.41421356237312884
10
198.38200000000003
20
21.833600000000001
10
211.38200000000001
20
21.833600000000011
42
0.41421356237312362
0
LINE
5
114
100
AcDbEntity
8
0
100
AcDbLine
10
37.625900000000001
20
28.3338
30
0
11
37.625900000000001
21
31.132600000000004
31
0
0
LWPOLYLINE
5
115
100
AcDbEntity
8
0
100
AcDbPolyline
90
8
70
1
43
0.0
10
282.81900000000002
20
16.783100000000001
10
269.82000000000005
20
16.783099999999994
42
0.41421356237312756
10
269.32000000000005
20
16.283100000000001
10
269.32000000000005
20
3.2836400000000006
42
0.41421356237312851
10
269.82000000000005
20
2.7836400000000001
10
282.81900000000002
20
2.7836400000000068
42
0.41421356237312917
10
283.31900000000007
20
3.283640000000001
10
283.31900000000007
20
16.283100000000001
42
0.41421356237312756
0
LWPOLYLINE
5
116
100
AcDbEntity
8
0
100
AcDbPolyline
90
8
70
1
43
0.0
10
239.95699999999999
20
54.883099999999999
10
226.95700000000002
20
54.883099999999985
42
0.41421356237312101
10
226.45700000000002
20
54.383100000000006
10
226.45699999999999
20
41.383799999999994
42
0.41421356237312101
10
226.95700000000002
20
40.883800000000001
10
239.95699999999999
20
40.883800000000015
42
0.41421356237312101
10
240.45699999999999
20
41.383799999999994
10
240.45700000000005
20
54.383100000000006
42
0.41421356237312101
0
LWPOLYLINE
5
117
100
AcDbEntity
8
0
100
AcDbPolyline
90
8
70
1
43
0.0
10
226.45700000000002
20
16.283100000000005
10
226.45700000000002
20
3.2836400000000001
42
0.41421356237309698
10
226.95700000000002
20
2.7836399999999992
10
239.95699999999999
20
2.7836399999999886
42
0.41421356237309698
10
240.45699999999999
20
3.2836399999999988
10
240.45699999999999
20
16.283100000000001
42
0.41421356237309637
10
239.95699999999999
20
16.783100000000012
10
226.95700000000002
20
16.783100000000012
42
0.41421356237309509
0
LWPOLYLINE
5
118
100
AcDbEntity
8
0
100
AcDbPolyline
90
8
70
1
43
0.0
10
302.89499999999998
20
95.507499999999993
10
2.0950845999999914
20
95.507499999999993
42
0.41421356237309676
10
0.095084599999992192
20
93.507499999999993
10
0.095084599999992192
20
2.2576930000000002
42
0.41421356237309892
10
2.0950846000000212
20
0.25769299999999995
10
302.89499999999998
20
0.25769299999999995
42
0.41421356237309681
10
304.89499999999998
20
2.2576929999999962
10
304.89499999999992
20
93.507499999999993
42
0.4142135623730977
0
LWPOLYLINE
5
119
100
AcDbEntity
8
0
100
AcDbPolyline
90
8
70
1
43
0.0
10
154.232
20
35.832999999999998
10
141.232
20
35.832999999999998
42
0.41421356237308726
10
140.732
20
35.332999999999998
10
140.732
20
22.333599999999997
42
0.41421356237308726
10
141.232
20
21.833600000000001
10
154.232
20
21.833599999999986
42
0.41421356237305601
10
154.732
20
22.333599999999997
10
154.732
20
35.332999999999998
42
0.41421356237306645
0
LWPOLYLINE
5
120
100
AcDbEntity
8
0
100
AcDbPolyline
90
8
70
1
43
0.0
10
178.83199999999999
20
35.332999999999998
10
178.83199999999999
20
22.333600000000004
42
0.4142135623730977
10
179.33199999999999
20
21.833600000000001
10
192.33199999999999
20
21.833600000000011
42
0.41421356237312362
10
192.83199999999999
20
22.333599999999997
10
192.83199999999999
20
35.332999999999998
42
0.41421356237312362
10
192.33199999999999
20
35.832999999999998
10
179.33199999999999
20
35.833000000000006
42
0.41421356237309243
0
LWPOLYLINE
5
121
100
AcDbEntity
8
0
100
AcDbPolyline
90
8
70
1
43
0.0
10
173.28200000000004
20
35.832999999999998
10
160.28200000000001
20
35.832999999999998
42
0.41421356237308726
10
159.78200000000001
20
35.332999999999998
10
159.78200000000001
20
22.333599999999997
42
0.41421356237308726
10
160.28200000000001
20
21.833600000000001
10
173.28200000000004
20
21.833599999999997
42
0.41421356237309243
10
173.78200000000004
20
22.333599999999997
10
173.78200000000004
20
35.332999999999998
42
0.41421356237309243
0
LWPOLYLINE
5
122
100
AcDbEntity
8
0
100
AcDbPolyline
90
8
70
1
43
0.0
10
135.18200000000002
20
35.832999999999998
10
122.18200000000002
20
35.833000000000013
42
0.41421356237305601
10
121.682
20
35.332999999999998
10
121.682
20
22.333599999999997
42
0.41421356237306645
10
122.18200000000002
20
21.833600000000001
10
135.18200000000002
20
21.833599999999986
42
0.41421356237305601
10
135.68200000000002
20
22.333599999999997
10
135.68200000000002
20
35.332999999999998
42
0.41421356237306645
0
LWPOLYLINE
5
123
100
AcDbEntity
8
0
100
AcDbPolyline
90
8
70
1
43
0.0
10
23.762900000000002
20
41.383799999999994
10
23.762900000000002
20
54.383100000000006
42
0.41421356237309509
10
23.262900000000002
20
54.883099999999999
10
10.262030000000003
20
54.883099999999999
42
0.41421356237309509
10
9.7620300000000011
20
54.383100000000006
10
9.7620299999999993
20
41.383799999999994
42
0.4142135623730977
10
10.262030000000003
20
40.883800000000001
10
23.262900000000002
20
40.883800000000008
42
0.4142135623730977
0
LWPOLYLINE
5
124
100
AcDbEntity
8
0
100
AcDbPolyline
90
8
70
1
43
0.0
10
301.86900000000003
20
73.933099999999996
10
288.87000000000006
20
73.933099999999996
42
0.41421356237313145
10
288.37
20
73.433099999999996
10
288.37
20
60.433799999999998
42
0.41421356237313145
10
288.87000000000006
20
59.933800000000005
10
301.86900000000003
20
59.933800000000005
42
0.41421356237313145
10
302.36900000000003
20
60.433799999999998
10
302.36900000000003
20
73.433099999999996
42
0.41421356237313145
0
LWPOLYLINE
5
125
100
AcDbEntity
8
0
100
AcDbPolyline
90
8
70
1
43
0.0
10
278.05700000000002
20
73.933099999999996
10
265.05700000000002
20
73.933099999999982
42
0.41421356237312101
10
264.55700000000002
20
73.433099999999996
10
264.55700000000002
20
60.433799999999998
42
0.41421356237312101
10
265.05700000000002
20
59.933800000000005
10
278.05700000000002
20
59.933800000000019
42
0.41421356237312101
10
278.55700000000002
20
60.433799999999998
10
278.55700000000007
20
73.433099999999996
42
0.41421356237312101
0
LWPOLYLINE
5
126
100
AcDbEntity
8
0
100
AcDbPolyline
90
8
70
1
43
0.0
10
220.90700000000001
20
54.883099999999999
10
207.90700000000004
20
54.883099999999999
42
0.41421356237313145
10
207.40700000000004
20
54.383100000000006
10
207.40700000000004
20
41.383799999999994
42
0.41421356237313145
10
207.90700000000004
20
40.883800000000001
10
220.90700000000001
20
40.883800000000001
42
0.41421356237313145
10
221.40700000000004
20
41.383799999999994
10
221.40700000000004
20
54.383100000000006
42
0.41421356237313145
0
LWPOLYLINE
5
127
100
AcDbEntity
8
0
100
AcDbPolyline
90
8
70
1
43
0.0
10
60.2697
20
78.983800000000002
10
73.268999999999991
20
78.983800000000002
42
0.41421356237309509
10
73.768999999999991
20
79.483800000000002
10
73.768999999999991
20
92.483100000000007
42
0.41421356237305862
10
73.268999999999991
20
92.983099999999993
10
60.2697
20
92.983099999999993
42
0.41421356237307422
10
59.7697
20
92.483099999999979
10
59.769700000000007
20
79.483800000000002
42
0.41421356237310542
0
LWPOLYLINE
5
128
100
AcDbEntity
8
0
100
AcDbPolyline
90
8
70
1
43
0.0
10
117.41800000000001
20
78.983800000000016
10
130.41899999999998
20
78.983800000000002
42
0.41421356237310542
10
130.91899999999998
20
79.483800000000002
10
130.91899999999998
20
92.483099999999979
42
0.41421356237307422
10
130.41899999999998
20
92.983099999999993
10
117.41800000000001
20
92.983099999999993
42
0.41421356237307422
10
116.91800000000001
20
92.483099999999979
10
116.91800000000001
20
79.483800000000002
42
0.41421356237310542
0
LWPOLYLINE
5
129
100
AcDbEntity
8
0
100
AcDbPolyline
90
8
70
1
43
0.0
10
16.119199999999999
20
92.983099999999993
10
3.11965
20
92.983099999999993
42
0.41421356237306933
10
2.6196500000000009
20
92.483099999999979
10
2.61965
20
79.483800000000002
42
0.41421356237309825
10
3.1196500000000005
20
78.983800000000002
10
16.119199999999999
20
78.983800000000002
42
0.4142135623730977
10
16.619199999999999
20
79.483800000000002
10
16.619199999999999
20
92.483100000000007
42
0.41421356237305862
0
LWPOLYLINE
5
130
100
AcDbEntity
8
0
100
AcDbPolyline
90
8
70
1
43
0.0
10
22.169699999999999
20
78.983800000000016
10
35.169000000000004
20
78.983800000000016
42
0.4142135623730977
10
35.669000000000004
20
79.483800000000002
10
35.669000000000004
20
92.483100000000007
42
0.41421356237305862
10
35.169000000000004
20
92.983099999999993
10
22.169699999999999
20
92.983099999999993
42
0.41421356237305862
10
21.669699999999999
20
92.483100000000007
10
21.669699999999999
20
79.483800000000002
42
0.4142135623730977
0
LWPOLYLINE
5
131
100
AcDbEntity
8
0
100
AcDbPolyline
90
8
70
1
43
0.0
10
302.36900000000003
20
22.333599999999997
10
302.36900000000003
20
35.332999999999998
42
0.41421356237312362
10
301.86900000000003
20
35.832999999999998
10
288.87000000000006
20
35.832999999999984
42
0.41421356237312362
10
288.37
20
35.332999999999998
10
288.37
20
22.333600000000004
42
0.41421356237312884
10
288.87000000000006
20
21.833600000000001
10
301.86900000000003
20
21.833600000000011
42
0.41421356237312362
0
LWPOLYLINE
5
132
100
AcDbEntity
8
0
100
AcDbPolyline
90
8
70
1
43
0.0
10
87.5565
20
54.883099999999999
10
74.557199999999995
20
54.883099999999999
42
0.41421356237309509
10
74.057199999999995
20
54.383100000000006
10
74.057199999999995
20
41.383799999999994
42
0.41421356237310542
10
74.557199999999995
20
40.883800000000001
10
87.5565
20
40.883800000000008
42
0.41421356237310542
10
88.0565
20
41.383799999999994
10
88.0565
20
54.383100000000006
42
0.41421356237308982
0
LWPOLYLINE
5
133
100
AcDbEntity
8
0
100
AcDbPolyline
90
8
70
1
43
0.0
10
188.357
20
54.383100000000006
10
188.35699999999997
20
41.383799999999994
42
0.41421356237312101
10
188.857
20
40.883800000000001
10
201.857
20
40.883800000000001
42
0.41421356237313145
10
202.35700000000003
20
41.383799999999994
10
202.35700000000003
20
54.383100000000006
42
0.41421356237313145
10
201.857
20
54.883099999999999
10
188.857
20
54.883099999999985
42
0.41421356237312101
0
LWPOLYLINE
5
134
100
AcDbEntity
8
0
100
AcDbPolyline
90
8
70
1
43
0.0
10
182.80700000000002
20
54.883099999999999
10
169.80700000000002
20
54.883099999999999
42
0.41421356237313145
10
169.30700000000002
20
54.383100000000006
10
169.30700000000002
20
41.383799999999994
42
0.41421356237313145
10
169.80700000000002
20
40.883800000000001
10
182.80700000000002
20
40.883800000000015
42
0.41421356237312101
10
183.30700000000004
20
41.383799999999994
10
183.30700000000007
20
54.383100000000006
42
0.41421356237312101
0
LWPOLYLINE
5
135
100
AcDbEntity
8
0
100
AcDbPolyline
90
8
70
1
43
0.0
10
92.318999999999988
20
92.983099999999993
10
79.319699999999997
20
92.983099999999993
42
0.41421356237307422
10
78.819699999999983
20
92.483099999999979
10
78.819699999999997
20
79.483800000000002
42
0.41421356237310542
10
79.319699999999997
20
78.983800000000002
10
92.318999999999988
20
78.983800000000016
42
0.41421356237310542
10
92.819000000000003
20
79.483800000000002
10
92.819000000000003
20
92.483099999999979
42
0.41421356237307422
0
LWPOLYLINE
5
136
100
AcDbEntity
8
0
100
AcDbPolyline
90
8
70
1
43
0.0
10
65.032200000000003
20
21.833599999999997
10
78.031499999999994
20
21.833600000000001
42
0.41421356237309509
10
78.531499999999994
20
22.333599999999997
10
78.531499999999994
20
35.332999999999998
42
0.41421356237309509
10
78.031499999999994
20
35.832999999999998
10
65.032200000000003
20
35.832999999999998
42
0.4142135623730977
10
64.532200000000017
20
35.332999999999998
10
64.532200000000003
20
22.333599999999997
42
0.4142135623730977
0
LWPOLYLINE
5
137
100
AcDbEntity
8
0
100
AcDbPolyline
90
8
70
1
43
0.0
10
58.981500000000004
20
35.832999999999998
10
45.982199999999992
20
35.833000000000006
42
0.4142135623730977
10
45.482199999999999
20
35.332999999999998
10
45.482200000000006
20
22.333599999999997
42
0.4142135623730977
10
45.982199999999992
20
21.833600000000001
10
58.981500000000004
20
21.833600000000001
42
0.41421356237309509
10
59.481499999999997
20
22.333599999999997
10
59.481499999999997
20
35.332999999999998
42
0.41421356237309509
0
LWPOLYLINE
5
138
100
AcDbEntity
8
0
100
AcDbPolyline
90
8
70
1
43
0.0
10
28.811999999999998
20
16.283100000000005
10
28.811999999999998
20
3.2836400000000001
42
0.4142135623730967
10
29.311999999999998
20
2.7836400000000001
10
42.31280000000001
20
2.7836400000000019
42
0.4142135623730957
10
42.81280000000001
20
3.283640000000001
10
42.81280000000001
20
16.283100000000001
42
0.41421356237309637
10
42.31280000000001
20
16.783100000000001
10
29.311999999999998
20
16.783100000000005
42
0.41421356237309637
0
LWPOLYLINE
5
139
100
AcDbEntity
8
0
100
AcDbPolyline
90
8
70
1
43
0.0
10
18.500399999999999
20
16.783100000000001
10
5.5009100000000011
20
16.783100000000005
42
0.41421356237309243
10
5.0009100000000011
20
16.283100000000005
10
5.0009100000000011
20
3.2836400000000001
42
0.41421356237309437
10
5.5009100000000011
20
2.7836400000000001
10
18.500399999999999
20
2.7836399999999992
42
0.41421356237309309
10
19.000399999999999
20
3.283640000000001
10
19.000399999999999
20
16.283100000000001
42
0.41421356237309109
0
LWPOLYLINE
5
140
100
AcDbEntity
8
0
100
AcDbPolyline
90
8
70
1
43
0.0
10
126.15700000000002
20
41.383799999999994
10
126.15700000000002
20
54.383100000000006
42
0.414213562373069
10
125.65700000000001
20
54.883099999999999
10
112.65700000000002
20
54.883099999999999
42
0.41421356237308982
10
112.15700000000001
20
54.383100000000006
10
112.15700000000001
20
41.383799999999994
42
0.41421356237310542
10
112.65700000000002
20
40.883800000000001
10
125.65700000000001
20
40.883799999999994
42
0.41421356237307422
0
LWPOLYLINE
5
141
100
AcDbEntity
8
0
100
AcDbPolyline
90
16
70
1
43
0.0
10
28.525400000000005
20
21.833600000000001
10
14.5259
20
21.833600000000001
10
13.000066326729131
20
21.833600000000001
10
13.000034910288283
20
21.38116105706662
42
-0.41419322460940561
10
12.500034911493692
20
20.881195776050546
10
5.9253300000000007
20
20.881195776050546
42
-0.41421356237309698
10
5.4253300000000007
20
21.381195776050546
10
5.4253300000000007
20
35.332999999999998
42
-0.4142135623730957
10
5.9253299999999998
20
35.832999999999998
10
37.125900000000001
20
35.832999999999998
42
-0.41421356237309509
10
37.625900000000001
20
35.332999999999998
10
37.625900000000001
20
21.35733127733273
42
-0.41421356237309509
10
37.125900000000001
20
20.857331277332733
10
30.550899999999999
20
20.857331277332733
42
-0.41421356237309509
10
30.050899999999999
20
21.35733127733273
10
30.050899999999999
20
21.833600000000001
0
LWPOLYLINE
5
142
100
AcDbEntity
8
0
100
AcDbPolyline
90
8
70
1
43
0.0
10
49.456500000000005
20
54.883099999999999
10
36.4572
20
54.883099999999999
42
0.41421356237309509
10
35.9572
20
54.383100000000006
10
35.957199999999993
20
41.383799999999994
42
0.4142135623730977
10
36.4572
20
40.883800000000001
10
49.456500000000005
20
40.883800000000001
42
0.41421356237310542
10
49.956500000000005
20
41.383799999999994
10
49.956500000000005
20
54.383100000000006
42
0.41421356237309509
0
LWPOLYLINE
5
143
100
AcDbEntity
8
0
100
AcDbPolyline
90
8
70
1
43
0.0
10
66.12530000000001
20
16.783100000000001
10
53.126000000000005
20
16.783100000000001
42
0.41421356237309509
10
52.626000000000005
20
16.283100000000005
10
52.626000000000005
20
3.2836400000000001
42
0.41421356237309537
10
53.126000000000005
20
2.7836400000000001
10
66.12530000000001
20
2.7836400000000019
42
0.4142135623730957
10
66.62530000000001
20
3.283640000000001
10
66.62530000000001
20
16.283100000000001
42
0.41421356237309637
0
LWPOLYLINE
5
144
100
AcDbEntity
8
0
100
AcDbPolyline
90
8
70
1
43
0.0
10
116.13200000000001
20
35.832999999999998
10
103.13200000000002
20
35.832999999999998
42
0.41421356237308726
10
102.63200000000001
20
35.332999999999998
10
102.63200000000001
20
22.333599999999997
42
0.41421356237308726
10
103.13200000000002
20
21.833600000000001
10
116.13200000000001
20
21.833599999999986
42
0.41421356237305601
10
116.63200000000002
20
22.333599999999997
10
116.63200000000002
20
35.332999999999998
42
0.41421356237306645
0
LWPOLYLINE
5
145
100
AcDbEntity
8
0
100
AcDbPolyline
90
8
70
1
43
0.0
10
216.14400000000001
20
73.933099999999996
10
203.14500000000004
20
73.933099999999982
42
0.41421356237312101
10
202.64500000000001
20
73.433099999999996
10
202.64499999999998
20
60.433799999999998
42
0.41421356237312101
10
203.14500000000004
20
59.933800000000005
10
216.14400000000001
20
59.933800000000005
42
0.41421356237313145
10
216.64400000000001
20
60.433799999999998
10
216.64400000000001
20
73.433099999999996
42
0.41421356237313145
0
LWPOLYLINE
5
146
100
AcDbEntity
8
0
100
AcDbPolyline
90
8
70
1
43
0.0
10
197.09400000000002
20
73.933099999999996
10
184.09500000000003
20
73.933099999999982
42
0.41421356237312101
10
183.595
20
73.433099999999996
10
183.59499999999997
20
60.433799999999998
42
0.41421356237312101
10
184.09500000000003
20
59.933800000000005
10
197.09400000000002
20
59.933800000000019
42
0.41421356237312101
10
197.59400000000002
20
60.433799999999998
10
197.59400000000005
20
73.433099999999996
42
0.41421356237312101
0
LWPOLYLINE
5
147
100
AcDbEntity
8
0
100
AcDbPolyline
90
8
70
1
43
0.0
10
178.04400000000001
20
73.933099999999996
10
165.04500000000002
20
73.933099999999982
42
0.41421356237312101
10
164.54499999999999
20
73.433099999999996
10
164.54499999999996
20
60.433799999999998
42
0.41421356237312101
10
165.04500000000002
20
59.933800000000005
10
178.04400000000001
20
59.933800000000019
42
0.41421356237312101
10
178.54400000000001
20
60.433799999999998
10
178.54400000000004
20
73.433099999999996
42
0.41421356237312101
0
LWPOLYLINE
5
148
100
AcDbEntity
8
0
100
AcDbPolyline
90
8
70
1
43
0.0
10
158.994
20
73.933099999999996
10
145.99500000000003
20
73.933099999999996
42
0.41421356237308982
10
145.495
20
73.433099999999996
10
145.495
20
60.433799999999998
42
0.41421356237308982
10
145.99500000000003
20
59.933800000000005
10
158.994
20
59.933800000000005
42
0.41421356237308982
10
159.494
20
60.433799999999998
10
159.494
20
73.433099999999996
42
0.41421356237308982
0
LWPOLYLINE
5
149
100
AcDbEntity
8
0
100
AcDbPolyline
90
8
70
1
43
0.0
10
139.94399999999999
20
73.933099999999996
10
126.94500000000002
20
73.933099999999996
42
0.41421356237308982
10
126.44500000000001
20
73.433099999999996
10
126.44500000000001
20
60.433799999999998
42
0.41421356237308982
10
126.94500000000002
20
59.933800000000005
10
139.94399999999999
20
59.933800000000005
42
0.41421356237308982
10
140.44399999999999
20
60.433799999999998
10
140.44399999999999
20
73.433099999999996
42
0.41421356237308982
0
LWPOLYLINE
5
150
100
AcDbEntity
8
0
100
AcDbPolyline
90
8
70
1
43
0.0
10
120.89399999999999
20
73.933099999999996
10
107.89500000000001
20
73.933099999999996
42
0.41421356237308982
10
107.395
20
73.433099999999996
10
107.395
20
60.433799999999998
42
0.41421356237308982
10
107.89500000000001
20
59.933800000000005
10
120.89400000000001
20
59.933800000000005
42
0.41421356237305862
10
121.39400000000001
20
60.433799999999998
10
121.39400000000001
20
73.433099999999996
42
0.414213562373069
0
LWPOLYLINE
5
151
100
AcDbEntity
8
0
100
AcDbPolyline
90
8
70
1
43
0.0
10
101.84399999999999
20
73.933099999999996
10
88.844700000000003
20
73.933099999999996
42
0.41421356237305862
10
88.344700000000017
20
73.433099999999996
10
88.344700000000017
20
60.433799999999998
42
0.414213562373069
10
88.844700000000017
20
59.933800000000005
10
101.84399999999999
20
59.933800000000005
42
0.41421356237308982
10
102.34400000000001
20
60.433799999999998
10
102.34400000000001
20
73.433099999999996
42
0.41421356237308982
0
LWPOLYLINE
5
152
100
AcDbEntity
8
0
100
AcDbPolyline
90
8
70
1
43
0.0
10
82.793999999999983
20
73.933099999999996
10
69.794700000000006
20
73.933099999999996
42
0.41421356237309509
10
69.294700000000006
20
73.433099999999996
10
69.294700000000006
20
60.433799999999998
42
0.41421356237309509
10
69.794700000000006
20
59.933800000000005
10
82.793999999999983
20
59.933800000000005
42
0.41421356237308982
10
83.293999999999997
20
60.433799999999998
10
83.293999999999997
20
73.433099999999996
42
0.41421356237308982
0
LWPOLYLINE
5
153
100
AcDbEntity
8
0
100
AcDbPolyline
90
8
70
1
43
0.0
10
63.744000000000007
20
73.933099999999996
10
50.744700000000009
20
73.933099999999996
42
0.41421356237309509
10
50.244700000000009
20
73.433099999999996
10
50.244700000000009
20
60.433799999999998
42
0.41421356237309509
10
50.744700000000009
20
59.933800000000005
10
63.744000000000007
20
59.933800000000005
42
0.41421356237309509
10
64.244
20
60.433799999999998
10
64.244
20
73.433099999999996
42
0.41421356237309509
0
LWPOLYLINE
5
154
100
AcDbEntity
8
0
100
AcDbPolyline
90
8
70
1
43
0.0
10
44.694000000000003
20
73.933099999999996
10
31.694700000000001
20
73.933099999999996
42
0.41421356237309509
10
31.194700000000001
20
73.433099999999996
10
31.194700000000005
20
60.433799999999998
42
0.41421356237309509
10
31.694700000000005
20
59.933800000000005
10
44.694000000000003
20
59.933800000000005
42
0.41421356237309509
10
45.194000000000003
20
60.433799999999998
10
45.194000000000003
20
73.433099999999996
42
0.41421356237309509
0
LWPOLYLINE
5
155
100
AcDbEntity
8
0
100
AcDbPolyline
90
8
70
1
43
0.0
10
254.24400000000003
20
73.933099999999996
10
241.245
20
73.933099999999996
42
0.41421356237313145
10
240.745
20
73.433099999999996
10
240.745
20
60.433799999999998
42
0.41421356237313145
10
241.245
20
59.933800000000005
10
254.24400000000003
20
59.933800000000005
42
0.41421356237313145
10
254.74400000000003
20
60.433799999999998
10
254.74400000000003
20
73.433099999999996
42
0.41421356237313145
0
LWPOLYLINE
5
156
100
AcDbEntity
8
0
100
AcDbPolyline
90
8
70
1
43
0.0
10
235.19400000000002
20
73.933099999999996
10
222.19499999999999
20
73.933099999999996
42
0.41421356237313145
10
221.69499999999999
20
73.433099999999996
10
221.69499999999999
20
60.433799999999998
42
0.41421356237313145
10
222.19499999999999
20
59.933800000000005
10
235.19400000000002
20
59.933800000000005
42
0.41421356237313145
10
235.69400000000002
20
60.433799999999998
10
235.69400000000002
20
73.433099999999996
42
0.41421356237313145
0
LWPOLYLINE
5
157
100
AcDbEntity
8
0
100
AcDbPolyline
90
8
70
1
43
0.0
10
20.881699999999999
20
73.933099999999996
10
7.8821600000000016
20
73.933099999999996
42
0.4142135623730957
10
7.3821600000000025
20
73.433099999999996
10
7.3821600000000034
20
60.433799999999998
42
0.41421356237309437
10
7.8821600000000007
20
59.933800000000005
10
20.881700000000002
20
59.933800000000005
42
0.41421356237309509
10
21.381700000000002
20
60.433799999999998
10
21.381699999999995
20
73.433099999999996
42
0.41421356237309509
0
LWPOLYLINE
5
158
100
AcDbEntity
8
0
100
AcDbPolyline
90
16
70
1
43
0.0
10
275.31965000000002
20
78.983799999972618
10
258.26875019371516
20
78.983800000000002
10
258.26875019371516
20
78.531195776050538
42
-0.41421356237313145
10
257.76875019371511
20
78.031195776050538
10
251.19408000000004
20
78.031195776050538
42
-0.41421356237313145
10
250.69408000000004
20
78.531195776050538
10
250.69408000000004
20
92.483099999999979
42
-0.41421356237309509
10
251.19408000000004
20
92.983099999999993
10
259.79500000000002
20
92.983099999999993
10
273.79400000000004
20
92.983099999999993
10
282.39465000000001
20
92.983100000000007
42
-0.41421356237308465
10
282.89465000000007
20
92.483099999999979
10
282.89465000000001
20
78.507331277332725
42
-0.41421356237312101
10
282.39465000000001
20
78.007331277332753
10
275.81965000000002
20
78.00733127733271
42
-0.41421356237312101
10
275.31965000000002
20
78.507331277332725
0
LWPOLYLINE
5
159
100
AcDbEntity
8
0
100
AcDbPolyline
90
8
70
1
43
0.0
10
301.86900000000003
20
92.983099999999993
10
288.87000000000006
20
92.983099999999993
42
0.41421356237309509
10
288.37
20
92.483099999999979
10
288.37
20
79.483800000000002
42
0.41421356237313145
10
288.87000000000006
20
78.983800000000002
10
301.86900000000003
20
78.983800000000002
42
0.41421356237313145
10
302.36900000000003
20
79.483800000000002
10
302.36900000000003
20
92.483099999999979
42
0.41421356237309509
0
LWPOLYLINE
5
160
100
AcDbEntity
8
0
100
AcDbPolyline
90
8
70
1
43
0.0
10
244.71900000000002
20
92.983099999999993
10
231.72
20
92.983099999999993
42
0.41421356237309509
10
231.22
20
92.483099999999979
10
231.22
20
79.483800000000002
42
0.41421356237313145
10
231.72
20
78.983800000000002
10
244.71900000000002
20
78.983800000000002
42
0.41421356237313145
10
245.21900000000002
20
79.483800000000002
10
245.21900000000002
20
92.483099999999979
42
0.41421356237309509
0
LWPOLYLINE
5
161
100
AcDbEntity
8
0
100
AcDbPolyline
90
8
70
1
43
0.0
10
225.66900000000001
20
92.983099999999993
10
212.66999999999999
20
92.983099999999993
42
0.41421356237309509
10
212.16999999999999
20
92.483099999999979
10
212.16999999999999
20
79.483800000000002
42
0.41421356237313145
10
212.66999999999999
20
78.983800000000002
10
225.66900000000001
20
78.983800000000002
42
0.41421356237313145
10
226.16900000000001
20
79.483800000000002
10
226.16900000000001
20
92.483099999999979
42
0.41421356237309509
0
LWPOLYLINE
5
162
100
AcDbEntity
8
0
100
AcDbPolyline
90
8
70
1
43
0.0
10
206.61900000000003
20
92.983099999999993
10
193.62
20
92.983099999999979
42
0.41421356237308465
10
193.12
20
92.483099999999979
10
193.11999999999998
20
79.483800000000002
42
0.41421356237312101
10
193.62
20
78.983800000000002
10
206.61900000000003
20
78.983800000000016
42
0.41421356237312101
10
207.11900000000003
20
79.483800000000002
10
207.11900000000009
20
92.483099999999979
42
0.41421356237308465
0
LWPOLYLINE
5
163
100
AcDbEntity
8
0
100
AcDbPolyline
90
8
70
1
43
0.0
10
187.56900000000002
20
92.983099999999979
10
174.56999999999999
20
92.983099999999979
42
0.41421356237308465
10
174.06999999999999
20
92.483099999999979
10
174.06999999999999
20
79.483800000000002
42
0.41421356237312101
10
174.56999999999999
20
78.983800000000016
10
187.56900000000002
20
78.983800000000002
42
0.41421356237312101
10
188.06900000000007
20
79.483800000000002
10
188.06900000000002
20
92.483099999999979
42
0.41421356237308465
0
LWPOLYLINE
5
164
100
AcDbEntity
8
0
100
AcDbPolyline
90
8
70
1
43
0.0
10
168.51900000000001
20
92.983099999999993
10
155.52000000000004
20
92.983099999999993
42
0.41421356237307422
10
155.02000000000004
20
92.483099999999979
10
155.02000000000004
20
79.483800000000002
42
0.41421356237310542
10
155.52000000000004
20
78.983800000000002
10
168.51900000000001
20
78.983800000000016
42
0.41421356237312101
10
169.01900000000001
20
79.483800000000002
10
169.01900000000006
20
92.483099999999979
42
0.41421356237308465
0
LWPOLYLINE
5
165
100
AcDbEntity
8
0
100
AcDbPolyline
90
8
70
1
43
0.0
10
149.46899999999999
20
92.983099999999993
10
136.47000000000003
20
92.983099999999993
42
0.41421356237307422
10
135.97000000000003
20
92.483099999999979
10
135.97000000000003
20
79.483800000000002
42
0.41421356237310542
10
136.47000000000003
20
78.983800000000016
10
149.46899999999999
20
78.983800000000002
42
0.41421356237310542
10
149.96899999999999
20
79.483800000000002
10
149.96899999999999
20
92.483099999999979
42
0.41421356237307422
0
LWPOLYLINE
5
166
100
AcDbEntity
8
0
100
AcDbPolyline
90
8
70
1
43
0.0
10
163.75700000000001
20
54.883099999999999
10
150.75700000000001
20
54.883099999999999
42
0.41421356237308982
10
150.25700000000001
20
54.383100000000006
10
150.25700000000001
20
41.383799999999994
42
0.41421356237310542
10
150.75700000000001
20
40.883800000000001
10
163.75700000000001
20
40.883800000000015
42
0.41421356237312101
10
164.25700000000003
20
41.383799999999994
10
164.25700000000006
20
54.383100000000006
42
0.41421356237312101
0
LWPOLYLINE
5
167
100
AcDbEntity
8
0
100
AcDbPolyline
90
8
70
1
43
0.0
10
145.20699999999999
20
41.383799999999994
10
145.20699999999999
20
54.383100000000006
42
0.414213562373069
10
144.70699999999999
20
54.883099999999999
10
131.70699999999999
20
54.883099999999999
42
0.41421356237308982
10
131.20699999999999
20
54.383100000000006
10
131.20699999999999
20
41.383799999999994
42
0.41421356237310542
10
131.70699999999999
20
40.883800000000001
10
144.70699999999999
20
40.883799999999994
42
0.41421356237307422
0
LWPOLYLINE
5
168
100
AcDbEntity
8
0
100
AcDbPolyline
90
8
70
1
43
0.0
10
264.26900000000001
20
3.283640000000001
10
264.26900000000001
20
16.283100000000001
42
0.41421356237312756
10
263.76900000000001
20
16.783100000000001
10
250.77000000000001
20
16.783100000000001
42
0.41421356237312756
10
250.27000000000001
20
16.283100000000001
10
250.27000000000001
20
3.2836400000000006
42
0.41421356237312851
10
250.77000000000001
20
2.7836400000000001
10
263.76900000000001
20
2.7836400000000068
42
0.41421356237312917
0
LWPOLYLINE
5
169
100
AcDbEntity
8
0
100
AcDbPolyline
90
8
70
1
43
0.0
10
76.862899999999996
20
17.669068916252662
10
76.862899999999996
20
3.283640000000001
42
0.4142135623730957
10
77.362899999999996
20
2.7836400000000001
10
85.438100000000006
20
2.7836400000000019
42
0.41421356237309048
10
85.93810000000002
20
3.283640000000001
10
85.93810000000002
20
17.669068916252666
42
0.41421356237308982
10
85.438100000000006
20
18.169068916252666
10
77.362899999999996
20
18.169068916252662
42
0.41421356237309637
0
CIRCLE
5
170
100
AcDbEntity
8
0
100
AcDbCircle
10
24.980000000000011
20
9.25
30
0
40
2
210
0
220
0
230
1
0
CIRCLE
5
171
100
AcDbEntity
8
0
100
AcDbCircle
10
24.980000000000011
20
66.390000000000001
30
0
40
2
210
0
220
0
230
1
0
CIRCLE
5
172
100
AcDbEntity
8
0
100
AcDbCircle
10
266.70000000000005
20
9.2499999999999982
30
0
40
2
210
0
220
0
230
1
0
CIRCLE
5
173
100
AcDbEntity
8
0
100
AcDbCircle
10
260.43000000000001
20
66.390000000000001
30
0
40
2
210
0
220
0
230
1
0
CIRCLE
5
174
100
AcDbEntity
8
0
100
AcDbCircle
10
187.96000000000004
20
9.2499999999999982
30
0
40
2
210
0
220
0
230
1
0
CIRCLE
5
175
100
AcDbEntity
8
0
100
AcDbCircle
10
128.56999999999999
20
47.625999999999998
30
0
40
2
210
0
220
0
230
1
0
LWPOLYLINE
5
176
100
AcDbEntity
8
0
100
AcDbPolyline
90
8
70
1
43
0.0
10
184.74747769735305
20
18.169068916252666
10
176.68700000000001
20
18.169068916252677
42
0.4142135623730977
10
176.18700000000001
20
17.669068916252666
10
176.18700000000001
20
3.283640000000001
42
0.41421356237309731
10
176.68700000000001
20
2.783640000000001
10
184.74747769735305
20
2.7836400000000063
42
0.41421356237312945
10
185.24747769735308
20
3.283640000000001
10
185.24747769735308
20
17.669068916252666
42
0.41421356237312884
0
ENDSEC
0
SECTION
2
OBJECTS
0
DICTIONARY
5
C
100
AcDbDictionary
3
ACAD_GROUP
350
D
3
ACAD_MLINESTYLE
350
17
0
DICTIONARY
5
D
100
AcDbDictionary
0
DICTIONARY
5
1A
330
C
100
AcDbDictionary
0
DICTIONARY
5
17
100
AcDbDictionary
0
ENDSEC
0
EOF
